# xmcd CD database file
#
# Track frame offsets:
#	150
#	9940
#	18672
#	26033
#	37299
#	46315
#	58248
#	70667
#	85579
#	92230
#	107448
#	124760
#
# Disc length: 1815 seconds
#
# Revision: 1
# Processed by: cddbd v1.5.2PL0 Copyright (c) Steve Scherf et al.
# Submitted via: CDex 1.51
#
DISCID=9807150c
DTITLE=Johnny Fallstaff - Live in Köln
DYEAR=2010
DGENRE=Country
TTITLE0=Honkin Tonkin' Daddy
TTITLE1=One Hand tied
TTITLE2=Rebel Rag
TTITLE3=Rockabella Baby
TTITLE4=Peekaboo
TTITLE5=Mexican Polka
TTITLE6=Fräulein
TTITLE7=Lora lie
TTITLE8=Why dont you leave me
TTITLE9=Drunk again
TTITLE10=11Month and 29Days/The Chrusher
TTITLE11=Flastaff Infection
EXTD=YEAR: 2010
EXTT0=
EXTT1=
EXTT2=
EXTT3=
EXTT4=
EXTT5=
EXTT6=
EXTT7=
EXTT8=
EXTT9=
EXTT10=
EXTT11=
PLAYORDER=
